/* XPM */
static char * sample_xpm[] = {
"64 64 2 1",
" 	c #FFFFFF",
".	c #000000",
"                                                                ",
"                                                                ",
"                                                                ",
"                                                                ",
"                                                                ",
"                                                                ",
"                                                                ",
"                                                                ",
"                                                                ",
"                                                                ",
"                                                                ",
"                                                                ",
"          .............................................         ",
"          .                                           .         ",
"          .                                           .         ",
"          .                                           .         ",
"          .                                           .         ",
"          .                                           .         ",
"          .                                           .         ",
"          .                                           .         ",
"          .                                           .         ",
"          .                                           .         ",
"          .  ...                        .             .         ",
"          . .   .                       .             .         ",
"          . .      ...   ... ...   ...  .  ...        .         ",
"          .  ...      . .   .   . .   . . .   .       .         ",
"          .     .  .... .   .   . .   . . .....       .         ",
"          .     . .   . .   .   . .   . . .           .         ",
"          . .   . .   . .   .   . .   . . .           .         ",
"          .  ...   .... .   .   . ....  .  ....       .         ",
"          .                       .                   .         ",
"          .                       .                   .         ",
"          .                                           .         ",
"          .                                           .         ",
"          .                .       .                  .         ",
"          .                . . . . .                  .         ",
"          .                .       .                  .         ",
"          .                   .                       .         ",
"          .                  ...                      .         ",
"          .         ........  .    .......            .         ",
"          .         .      .  ..   .     .            .         ",
"          .         .      .       .     .            .         ",
"          .         .      .       .     .            .         ",
"          .         .      .       .     .            .         ",
"          .         .      .       .     .            .         ",
"          .   .......      .........     .......      .         ",
"          .                                           .         ",
"          .                                           .         ",
"          .                                           .         ",
"          .............................................         ",
"                                                                ",
"                                                                ",
"                                                                ",
"                                                                ",
"                                                                ",
"                                                                ",
"                                                                ",
"                                                                ",
"                                                                ",
"                                                                ",
"                                                                ",
"                                                                ",
"                                                                ",
"                                                                "};
