/* XPM */
static char * hello_xpm[] = {
"64 64 2 1",
" 	c #FFFFFF",
".	c #000000",
"                                                                ",
"                                                                ",
"                                                                ",
"                                                                ",
"                                                                ",
"                                                                ",
"                                                                ",
"                                                                ",
"                                                                ",
"                                                                ",
"                                                                ",
"                              ......                            ",
"                          ..............                        ",
"                        ......      ......                      ",
"                      ....              ....                    ",
"                    ....                  ....                  ",
"                   ...                      ...                 ",
"                  ...                        ...                ",
"                 ...                          ...               ",
"                ...                            ...              ",
"                ..                              ..              ",
"               ..                                ..             ",
"               ..                                ..             ",
"              ..                                  ..            ",
"              ..         ...           ...        ..            ",
"             ..         .   .         .   .        ..           ",
"             ..        .  .  .       .  .  .       ..           ",
"             ..         .   .         .   .        ..           ",
"             ..          ...           ...         ..           ",
"            ..                                      ..          ",
"            ..                                      ..          ",
"            ..                                      ..          ",
"            ..                  .                   ..          ",
"            ..                  .                   ..          ",
"            ..                 ..                   ..          ",
"             ..               ...                  ..           ",
"             ..                                    ..           ",
"             ..                                    ..           ",
"             ..                                    ..           ",
"              ..                                  ..            ",
"              ..                                  ..            ",
"               ..                                ..             ",
"               ..         ..............         ..             ",
"                ..         ..        ..         ..              ",
"                ...         ..      ..         ...              ",
"                 ...         ...  ...         ...               ",
"                  ...          ....          ...                ",
"                   ...                      ...                 ",
"                    ....                  ....                  ",
"                      ....              ....                    ",
"                        ......      ......                      ",
"                          ..............                        ",
"                              ......                            ",
"                                                                ",
"                                                                ",
"                                                                ",
"                                                                ",
"                                                                ",
"                                                                ",
"                                                                ",
"                                                                ",
"                                                                ",
"                                                                ",
"                                                                "};
